<?xml version="1.0" encoding="UTF-8"?>
<svg id="Layer_2" data-name="Layer 2" xmlns="http://www.w3.org/2000/svg" viewBox="0 0 732.28 175.74">
  <g id="Layer_1-2" data-name="Layer 1">
    <g>
      <polygon points="24.27 0 0 0 0 138.65 94.76 138.65 94.76 117.68 24.27 117.68 24.27 0"/>
      <path d="M447.21,51.17c-3.88-4.85-8.77-8.67-14.66-11.46-5.89-2.78-12.79-4.17-20.68-4.17-6.47,0-12.49,1.26-18.06,3.79-5.57,2.52-9.9,6.7-13.01,12.53h-.39v-13.59h-20.97v137.48h22.14v-50.1h.39c1.68,2.72,3.79,5.08,6.31,7.09,2.52,2.01,5.27,3.66,8.25,4.95,2.98,1.29,6.08,2.23,9.32,2.82,3.23.58,6.47.87,9.71.87,7.38,0,13.79-1.46,19.22-4.37,5.44-2.91,9.93-6.8,13.5-11.65,3.56-4.85,6.21-10.45,7.96-16.8,1.75-6.34,2.62-12.88,2.62-19.61,0-7.38-.97-14.3-2.91-20.78-1.94-6.47-4.86-12.14-8.74-16.99ZM435.27,101.46c-.97,4.21-2.59,7.96-4.85,11.26-2.27,3.3-5.15,5.99-8.64,8.06-3.5,2.07-7.77,3.11-12.82,3.11-4.53,0-8.51-.9-11.94-2.72-3.43-1.81-6.38-4.27-8.83-7.38-2.46-3.11-4.31-6.83-5.53-11.17-1.23-4.34-1.84-9.03-1.84-14.08,0-10.74,2.36-19.35,7.09-25.83,4.72-6.47,11.75-9.71,21.07-9.71,4.53,0,8.54,1,12.04,3.01,3.5,2.01,6.41,4.66,8.74,7.96s4.08,7.09,5.24,11.36c1.17,4.27,1.75,8.67,1.75,13.2s-.49,8.71-1.46,12.91Z"/>
      <rect x="478.08" width="22.14" height="138.65"/>
      <path d="M613.63,123.89c-2.07,0-3.46-.58-4.17-1.75-.71-1.17-1.07-3.11-1.07-5.83v-51.65c0-5.31-1.17-9.81-3.5-13.5-2.33-3.69-5.41-6.7-9.22-9.03-3.82-2.33-8.12-4.01-12.91-5.05-4.79-1.04-9.65-1.55-14.56-1.55-5.57,0-11,.52-16.31,1.55-5.31,1.04-10.07,2.85-14.27,5.44-4.21,2.59-7.67,6.02-10.39,10.29-2.72,4.27-4.27,9.65-4.66,16.12h22.14c.52-5.44,2.78-9.45,6.8-12.04,4.01-2.59,9.13-3.88,15.34-3.88,2.2,0,4.53.16,6.99.49,2.46.33,4.69.97,6.7,1.94,2.01.97,3.69,2.36,5.05,4.17,1.36,1.81,2.04,4.14,2.04,6.99,0,3.24-.81,5.66-2.43,7.28-1.62,1.62-3.82,2.82-6.6,3.59-2.79.78-5.99,1.33-9.61,1.65-3.63.33-7.45.87-11.46,1.65-4.66.52-9.29,1.26-13.88,2.23-4.6.97-8.74,2.56-12.43,4.76-3.69,2.2-6.67,5.24-8.93,9.13-2.27,3.88-3.4,8.93-3.4,15.15,0,4.92.94,9.22,2.82,12.91,1.88,3.69,4.4,6.73,7.57,9.13,3.17,2.4,6.83,4.21,10.97,5.44,4.14,1.23,8.48,1.84,13.01,1.84,5.95,0,12.14-.97,18.54-2.91,6.41-1.94,11.81-5.05,16.21-9.32.9,4.53,2.85,7.7,5.83,9.52,2.98,1.81,6.73,2.72,11.26,2.72.9,0,2.01-.07,3.3-.19,1.29-.13,2.59-.32,3.88-.58,1.29-.26,2.55-.55,3.79-.87,1.23-.33,2.23-.62,3.01-.87v-15.34c-1.17.26-2.2.39-3.11.39h-2.33ZM586.25,104.86c0,3.5-.84,6.44-2.52,8.83-1.68,2.4-3.79,4.37-6.31,5.92s-5.21,2.66-8.06,3.3c-2.85.65-5.5.97-7.96.97-1.94,0-4.11-.19-6.51-.58-2.4-.39-4.6-1.07-6.6-2.04-2.01-.97-3.72-2.3-5.15-3.98-1.43-1.68-2.14-3.75-2.14-6.21,0-2.85.49-5.27,1.46-7.28.97-2.01,2.3-3.62,3.98-4.85,1.68-1.23,3.62-2.2,5.83-2.91,2.2-.71,4.47-1.26,6.8-1.65,4.92-.9,9.84-1.58,14.76-2.04,4.92-.45,9.06-1.78,12.43-3.98v16.51Z"/>
      <path d="M729.36,68.16c-1.94-6.47-4.86-12.14-8.74-16.99-3.88-4.85-8.77-8.67-14.66-11.46-5.89-2.78-12.79-4.17-20.68-4.17-2.85,0-5.73.36-8.64,1.07-2.91.71-5.7,1.75-8.35,3.11-2.66,1.36-5.08,3.01-7.28,4.95-2.2,1.94-4.08,4.14-5.63,6.6h-.39V0h-22.14v138.65h20.97v-13.79h.39c1.68,3.37,3.79,6.09,6.31,8.16,2.52,2.07,5.34,3.76,8.45,5.05,3.11,1.29,6.38,2.17,9.81,2.62,3.43.45,6.83.68,10.19.68,7.38,0,13.79-1.46,19.22-4.37,5.44-2.91,9.93-6.8,13.5-11.65,3.56-4.85,6.21-10.45,7.96-16.8,1.75-6.34,2.62-12.88,2.62-19.61,0-7.38-.97-14.3-2.91-20.78ZM708.68,101.46c-.97,4.21-2.59,7.96-4.85,11.26-2.27,3.3-5.15,5.99-8.64,8.06-3.5,2.07-7.77,3.11-12.82,3.11-4.53,0-8.51-.9-11.94-2.72-3.43-1.81-6.38-4.27-8.83-7.38-2.46-3.11-4.31-6.83-5.53-11.17-1.23-4.34-1.84-9.03-1.84-14.08,0-10.74,2.36-19.35,7.09-25.83,4.72-6.47,11.75-9.71,21.07-9.71,4.53,0,8.54,1,12.04,3.01,3.5,2.01,6.41,4.66,8.74,7.96s4.08,7.09,5.24,11.36c1.17,4.27,1.75,8.67,1.75,13.2s-.49,8.71-1.46,12.91Z"/>
      <path d="M283.87,32c-30.05,0-54.49,24.45-54.49,54.49,0,13.08,4.63,25.09,12.34,34.49h-40.83c7.71-9.4,12.34-21.42,12.34-34.49,0-30.05-24.45-54.49-54.49-54.49s-54.49,24.45-54.49,54.49,24.45,54.49,54.49,54.49h125.14c30.05,0,54.49-24.45,54.49-54.49s-24.45-54.49-54.49-54.49ZM158.74,120.99c-19.02,0-34.49-15.47-34.49-34.49s15.47-34.49,34.49-34.49,34.49,15.47,34.49,34.49-15.47,34.49-34.49,34.49ZM283.87,120.99c-19.02,0-34.49-15.47-34.49-34.49s15.47-34.49,34.49-34.49,34.49,15.47,34.49,34.49-15.47,34.49-34.49,34.49Z"/>
    </g>
  </g>
</svg>